<svg height="100%" width="100%" id="bg-svg" viewBox="0 0 1440 700" xmlns="http://www.w3.org/2000/svg" class="transition duration-300 ease-in-out delay-150"><defs><linearGradient id="gradient"><stop offset="5%" stop-color="#002bdc66"></stop><stop offset="95%" stop-color="#32ded466"></stop></linearGradient></defs><path d="M 0,700 C 0,700 0,175 0,175 C 28.86471792071962,150.4067217751815 57.72943584143924,125.81344355036296 83,127 C 108.27056415856076,128.18655644963704 129.94697455496265,155.15294757372965 157,188 C 184.05302544503735,220.84705242627035 216.48266593871023,259.5747661547184 242,240 C 267.5173340612898,220.4252338452816 286.1223616901965,142.5479878073967 310,125 C 333.8776383098035,107.45201219260329 363.0278873005038,150.23328261569486 393,171 C 422.9721126994962,191.76671738430514 453.7660891077886,190.5188817298239 480,189 C 506.2339108922114,187.4811182701761 527.9077562683419,185.6911904650095 557,188 C 586.0922437316581,190.3088095349905 622.6028858188437,196.71635641013805 649,194 C 675.3971141811563,191.28364358986195 691.6807004562831,179.44338389443826 713,179 C 734.3192995437169,178.55661610556174 760.6743123560237,189.51010801210884 786,181 C 811.3256876439763,172.48989198789116 835.622050119622,144.5161840571264 865,157 C 894.377949880378,169.4838159428736 928.8374871654881,222.4251557593856 957,210 C 985.1625128345119,197.5748442406144 1007.028001218426,119.78319290533118 1033,122 C 1058.971998781574,124.21680709466882 1089.0505079608083,206.4420726192897 1117,203 C 1144.9494920391917,199.5579273807103 1170.76996693834,110.44851661750995 1202,114 C 1233.23003306166,117.55148338249005 1269.8696242858316,213.76386091067042 1294,236 C 1318.1303757141684,258.2361390893296 1329.751535918334,206.49603973980842 1352,184 C 1374.248464081666,161.50396026019158 1407.124232040833,168.25198013009577 1440,175 C 1440,175 1440,700 1440,700 Z" stroke="none" stroke-width="0" fill="url(#gradient)" class="transition-all duration-300 ease-in-out delay-150"></path><defs><linearGradient id="gradient"><stop offset="5%" stop-color="#002bdc88"></stop><stop offset="95%" stop-color="#32ded488"></stop></linearGradient></defs><path d="M 0,700 C 0,700 0,350 0,350 C 16.995433474920496,369.55817635507935 33.99086694984099,389.11635271015865 65,387 C 96.00913305015901,384.88364728984135 141.03196567555653,361.09276551444464 170,341 C 198.96803432444347,320.90723448555536 211.8812703479329,304.5125852320628 233,318 C 254.1187296520671,331.4874147679372 283.44295293271165,374.8568935573041 313,380 C 342.55704706728835,385.1431064426959 372.34691792122044,352.0598405387209 397,345 C 421.65308207877956,337.9401594612791 441.1693753824066,356.90374428781223 468,351 C 494.8306246175934,345.09625571218777 528.9755805491533,314.3251823100302 559,317 C 589.0244194508467,319.6748176899698 614.9283024209803,355.795526472067 639,359 C 663.0716975790197,362.204473527933 685.3112097669256,332.49271180170183 711,313 C 736.6887902330744,293.50728819829817 765.8268585113173,284.2336263211257 791,311 C 816.1731414886827,337.7663736788743 837.3813561878055,400.5727829137952 865,412 C 892.6186438121945,423.4272170862048 926.6477167374603,383.4752420236935 962,379 C 997.3522832625397,374.5247579763065 1034.0277768623532,405.52624899143075 1054,384 C 1073.9722231376468,362.47375100856925 1077.2411758131266,288.4197620105835 1105,285 C 1132.7588241868734,281.5802379894165 1185.0075198851414,348.7947029662353 1213,360 C 1240.9924801148586,371.2052970337647 1244.728744646308,326.4014261244751 1266,312 C 1287.271255353692,297.5985738755249 1326.0775015296263,313.59959253586425 1358,325 C 1389.9224984703737,336.40040746413575 1414.9612492351869,343.20020373206785 1440,350 C 1440,350 1440,700 1440,700 Z" stroke="none" stroke-width="0" fill="url(#gradient)" class="transition-all duration-300 ease-in-out delay-150"></path><defs><linearGradient id="gradient"><stop offset="5%" stop-color="#002bdcff"></stop><stop offset="95%" stop-color="#32ded4ff"></stop></linearGradient></defs><path d="M 0,700 C 0,700 0,525 0,525 C 23.289555286958475,542.2320752532465 46.57911057391695,559.4641505064931 72,560 C 97.42088942608305,560.5358494935069 124.97311299129069,544.375473227274 150,534 C 175.0268870087093,523.624526772726 197.52843746092037,519.0339565844105 227,517 C 256.4715625390796,514.9660434155895 292.91313716502776,515.4887004350843 321,516 C 349.08686283497224,516.5112995649157 368.81901387896863,517.0112416752527 394,516 C 419.18098612103137,514.9887583247473 449.81080731909793,512.4663328639048 476,521 C 502.18919268090207,529.5336671360952 523.9377568446396,549.123426869128 550,538 C 576.0622431553604,526.876573130872 606.4381653023437,485.03995965958325 633,499 C 659.5618346976563,512.9600403404168 682.3095819459859,582.7167344925392 706,584 C 729.6904180540141,585.2832655074608 754.3235069137127,518.0931023702601 789,511 C 823.6764930862873,503.9068976297399 868.3963903991636,556.9108560264202 894,577 C 919.6036096008364,597.0891439735798 926.090931489633,584.2634735240591 949,563 C 971.909068510367,541.7365264759409 1011.239883642304,512.0352498773432 1044,514 C 1076.760116357696,515.9647501226568 1102.9495339411505,549.5955269665682 1128,537 C 1153.0504660588495,524.4044730334318 1176.9619805930938,465.58264225638385 1200,464 C 1223.0380194069062,462.41735774361615 1245.2025436864747,518.0739040078965 1275,535 C 1304.7974563135253,551.9260959921035 1342.227844661007,530.1217417120296 1371,522 C 1399.772155338993,513.8782582879704 1419.8860776694964,519.4391291439852 1440,525 C 1440,525 1440,700 1440,700 Z" stroke="none" stroke-width="0" fill="url(#gradient)" class="transition-all duration-300 ease-in-out delay-150"></path></svg>